<svg width="32" height="32" viewBox="0 0 32 32" fill="none" xmlns="http://www.w3.org/2000/svg">
<path d="M11.4286 7C11.4286 4.79375 13.4786 3 16 3C18.5214 3 20.5714 4.79375 20.5714 7V10H11.4286V7ZM8 10H3.42857C1.53571 10 0 11.3438 0 13V26C0 29.3125 3.07143 32 6.85714 32H25.1429C28.9286 32 32 29.3125 32 26V13C32 11.3438 30.4643 10 28.5714 10H24V7C24 3.13125 20.4214 0 16 0C11.5786 0 8 3.13125 8 7V10ZM9.71429 13C10.1689 13 10.605 13.158 10.9265 13.4393C11.248 13.7206 11.4286 14.1022 11.4286 14.5C11.4286 14.8978 11.248 15.2794 10.9265 15.5607C10.605 15.842 10.1689 16 9.71429 16C9.25963 16 8.82359 15.842 8.5021 15.5607C8.18061 15.2794 8 14.8978 8 14.5C8 14.1022 8.18061 13.7206 8.5021 13.4393C8.82359 13.158 9.25963 13 9.71429 13ZM20.5714 14.5C20.5714 14.1022 20.752 13.7206 21.0735 13.4393C21.395 13.158 21.8311 13 22.2857 13C22.7404 13 23.1764 13.158 23.4979 13.4393C23.8194 13.7206 24 14.1022 24 14.5C24 14.8978 23.8194 15.2794 23.4979 15.5607C23.1764 15.842 22.7404 16 22.2857 16C21.8311 16 21.395 15.842 21.0735 15.5607C20.752 15.2794 20.5714 14.8978 20.5714 14.5Z" fill="#9FAFA1"/>
</svg>
