<svg width="671" height="423" viewBox="0 0 671 423" fill="none" xmlns="http://www.w3.org/2000/svg">
<path d="M0.5 50C0.5 22.3858 22.8858 0 50.5 0H620.5C648.114 0 670.5 22.3858 670.5 50V254C670.5 271.121 656.621 285 639.5 285V285H579.5C551.886 285 529.5 307.386 529.5 335V391V391C529.5 408.673 515.173 423 497.5 423H50.5C22.8858 423 0.5 400.614 0.5 373V50Z" fill="#F4F0E5"/>
<path d="M552 338C552 321.431 565.431 308 582 308H637C653.569 308 667 321.431 667 338V393C667 409.569 653.569 423 637 423H582C565.431 423 552 409.569 552 393V338Z" fill="#F4F0E5"/>
</svg>
