<svg width="60" height="60" viewBox="0 0 60 60" fill="none" xmlns="http://www.w3.org/2000/svg">
<g clip-path="url(#clip0_2_25)">
<path d="M37.5 0C35.4258 0 33.75 1.67578 33.75 3.75C33.75 5.82422 35.4258 7.5 37.5 7.5H47.1914L23.6016 31.1016C22.1367 32.5664 22.1367 34.9453 23.6016 36.4102C25.0664 37.875 27.4453 37.875 28.9102 36.4102L52.5 12.8086V22.5C52.5 24.5742 54.1758 26.25 56.25 26.25C58.3242 26.25 60 24.5742 60 22.5V3.75C60 1.67578 58.3242 0 56.25 0H37.5ZM9.375 3.75C4.19531 3.75 0 7.94531 0 13.125V50.625C0 55.8047 4.19531 60 9.375 60H46.875C52.0547 60 56.25 55.8047 56.25 50.625V37.5C56.25 35.4258 54.5742 33.75 52.5 33.75C50.4258 33.75 48.75 35.4258 48.75 37.5V50.625C48.75 51.6562 47.9062 52.5 46.875 52.5H9.375C8.34375 52.5 7.5 51.6562 7.5 50.625V13.125C7.5 12.0938 8.34375 11.25 9.375 11.25H22.5C24.5742 11.25 26.25 9.57422 26.25 7.5C26.25 5.42578 24.5742 3.75 22.5 3.75H9.375Z" fill="#96A884"/>
</g>
<defs>
<clipPath id="clip0_2_25">
<rect width="60" height="60" fill="white"/>
</clipPath>
</defs>
</svg>
