<svg width="35" height="35" viewBox="0 0 35 35" fill="none" xmlns="http://www.w3.org/2000/svg">
<path d="M28.2645 14.6231C28.2645 17.6783 27.2842 20.5005 25.6328 22.7902L33.9621 31.2236C34.7845 32.0556 34.7845 33.4068 33.9621 34.2388C33.1397 35.0708 31.8041 35.0708 30.9817 34.2388L22.6524 25.8054C20.3891 27.4828 17.5995 28.4679 14.5796 28.4679C7.02001 28.4679 0.894714 22.271 0.894714 14.6231C0.894714 6.97515 7.02001 0.778259 14.5796 0.778259C22.1392 0.778259 28.2645 6.97515 28.2645 14.6231ZM14.5796 24.208C15.8238 24.208 17.0557 23.96 18.2052 23.4784C19.3546 22.9967 20.3991 22.2907 21.2788 21.4006C22.1586 20.5106 22.8564 19.454 23.3326 18.2911C23.8087 17.1282 24.0537 15.8818 24.0537 14.6231C24.0537 13.3644 23.8087 12.118 23.3326 10.9551C22.8564 9.79222 22.1586 8.73559 21.2788 7.84555C20.3991 6.95551 19.3546 6.2495 18.2052 5.76781C17.0557 5.28613 15.8238 5.03821 14.5796 5.03821C13.3354 5.03821 12.1035 5.28613 10.954 5.76781C9.80454 6.2495 8.76012 6.95551 7.88036 7.84555C7.0006 8.73559 6.30274 9.79222 5.82662 10.9551C5.3505 12.118 5.10545 13.3644 5.10545 14.6231C5.10545 15.8818 5.3505 17.1282 5.82662 18.2911C6.30274 19.454 7.0006 20.5106 7.88036 21.4006C8.76012 22.2907 9.80454 22.9967 10.954 23.4784C12.1035 23.96 13.3354 24.208 14.5796 24.208Z" fill="#778150"/>
</svg>
